# xmcd CD database file
#
# Track frame offsets:
#	150
#	14139
#	30630
#	48651
#	65477
#	85727
#	110453
#	125173
#	140924
#	163954
#
# Disc length: 2481 seconds
#
# Revision: 0
# Processed by: cddbd v1.5.2PL0 Copyright (c) Steve Scherf et al.
# Submitted via: CDex 1.51
#
DISCID=9809af0a
DTITLE=Erin Jordan and The Whiskey Romance - Gateway to Temptation
DYEAR=2008
DGENRE=Jazz
TTITLE0=Black Widow
TTITLE1=Jane
TTITLE2=Intoxication
TTITLE3=Unemployed on Monday
TTITLE4=Sleepy Town
TTITLE5=Unrequited
TTITLE6=Porque Tu No Me Amas
TTITLE7=Circus Song
TTITLE8=Amphibian
TTITLE9=Corpus Christi
EXTD=YEAR: 2008
EXTT0=
EXTT1=
EXTT2=
EXTT3=
EXTT4=
EXTT5=
EXTT6=
EXTT7=
EXTT8=
EXTT9=
PLAYORDER=
